<svg width="161" height="160" viewBox="0 0 161 160" fill="none" xmlns="http://www.w3.org/2000/svg">
<rect width="160" height="160" transform="translate(0.636719)" fill="white"/>
<path d="M143.637 64.5815V51.2805L131.572 40.2656H45.2682" stroke="#252525" stroke-width="6" stroke-linecap="round" stroke-linejoin="round"/>
<path d="M17.6367 95.5299L17.6367 108.831L29.7017 119.846L60.1894 119.846" stroke="#252525" stroke-width="6" stroke-linecap="round" stroke-linejoin="round"/>
<path d="M17.6367 96.0815V51.2805L29.6044 40.2656H48.5841" stroke="#252525" stroke-width="6" stroke-linecap="round" stroke-linejoin="round"/>
<path d="M143.637 62.3719L143.637 108.83L131.669 119.845L59.6366 119.846" stroke="#252525" stroke-width="6" stroke-linecap="round" stroke-linejoin="round"/>
<rect x="42.3203" y="62.0894" width="76.8706" height="35.8226" rx="7" stroke="#EF2056" stroke-width="6"/>
<path d="M40.6503 38.9599V27.3345" stroke="#252525" stroke-width="6" stroke-linecap="round" stroke-linejoin="round"/>
<path d="M40.6503 132.665V121.039" stroke="#252525" stroke-width="6" stroke-linecap="round" stroke-linejoin="round"/>
<path d="M119.871 38.9599V27.3345" stroke="#252525" stroke-width="6" stroke-linecap="round" stroke-linejoin="round"/>
<path d="M119.646 132.665V121.039" stroke="#252525" stroke-width="6" stroke-linecap="round" stroke-linejoin="round"/>
<path d="M93.3144 38.9599V27.3345" stroke="#252525" stroke-width="6" stroke-linecap="round" stroke-linejoin="round"/>
<path d="M93.3144 132.665V121.039" stroke="#252525" stroke-width="6" stroke-linecap="round" stroke-linejoin="round"/>
<path d="M66.9823 38.9599V27.3345" stroke="#252525" stroke-width="6" stroke-linecap="round" stroke-linejoin="round"/>
<path d="M66.9823 132.665V121.039" stroke="#252525" stroke-width="6" stroke-linecap="round" stroke-linejoin="round"/>
</svg>
