<svg width="161" height="160" viewBox="0 0 161 160" fill="none" xmlns="http://www.w3.org/2000/svg">
<g clip-path="url(#clip0_764_10043)">
<rect width="160" height="160" transform="translate(0.636719)" fill="white"/>
<rect x="24.2734" y="54" width="71.8184" height="52.3684" rx="16" fill="#15B76C"/>
<mask id="path-2-inside-1_764_10043" fill="white">
<path fill-rule="evenodd" clip-rule="evenodd" d="M30.6367 40C19.591 40 10.6367 48.9543 10.6367 60V100C10.6367 111.046 19.591 120 30.6367 120H127.923C138.969 120 147.923 111.046 147.923 100C147.923 98.5949 149.062 97.4559 150.468 97.4559H150.637C156.16 97.4559 160.637 92.9788 160.637 87.4559V71.5738C160.637 66.051 156.16 61.5738 150.637 61.5738H149.497C148.628 61.5738 147.923 60.8692 147.923 60C147.923 48.9543 138.969 40 127.923 40H30.6367Z"/>
</mask>
<path d="M16.6367 60C16.6367 52.268 22.9047 46 30.6367 46V34C16.2773 34 4.63672 45.6406 4.63672 60H16.6367ZM16.6367 100V60H4.63672V100H16.6367ZM30.6367 114C22.9047 114 16.6367 107.732 16.6367 100H4.63672C4.63672 114.359 16.2773 126 30.6367 126V114ZM127.923 114H30.6367V126H127.923V114ZM141.923 100C141.923 107.732 135.655 114 127.923 114V126C142.283 126 153.923 114.359 153.923 100H141.923ZM150.637 91.4559H150.468V103.456H150.637V91.4559ZM154.637 87.4559C154.637 89.665 152.846 91.4559 150.637 91.4559V103.456C159.474 103.456 166.637 96.2925 166.637 87.4559H154.637ZM154.637 71.5738V87.4559H166.637V71.5738H154.637ZM150.637 67.5738C152.846 67.5738 154.637 69.3647 154.637 71.5738H166.637C166.637 62.7373 159.474 55.5738 150.637 55.5738V67.5738ZM149.497 67.5738H150.637V55.5738H149.497V67.5738ZM127.923 46C135.655 46 141.923 52.268 141.923 60H153.923C153.923 45.6406 142.283 34 127.923 34V46ZM30.6367 46H127.923V34H30.6367V46ZM149.497 55.5738C151.942 55.5738 153.923 57.5555 153.923 60H141.923C141.923 64.1829 145.314 67.5738 149.497 67.5738V55.5738ZM153.923 100C153.923 101.909 152.376 103.456 150.468 103.456V91.4559C145.749 91.4559 141.923 95.2812 141.923 100H153.923Z" fill="#252525" mask="url(#path-2-inside-1_764_10043)"/>
</g>
<defs>
<clipPath id="clip0_764_10043">
<rect width="160" height="160" fill="white" transform="translate(0.636719)"/>
</clipPath>
</defs>
</svg>
