<svg width="33" height="33" viewBox="0 0 33 33" fill="none" xmlns="http://www.w3.org/2000/svg">
<path fill-rule="evenodd" clip-rule="evenodd" d="M20.477 25.675C20.8223 25.675 21.1534 25.5351 21.3976 25.286C21.6417 25.0369 21.7789 24.6991 21.7789 24.3468C21.7789 23.9945 21.6417 23.6567 21.3976 23.4076C21.1534 23.1585 20.8223 23.0185 20.477 23.0185C20.1317 23.0185 19.8005 23.1585 19.5563 23.4076C19.3122 23.6567 19.175 23.9945 19.175 24.3468C19.175 24.6991 19.3122 25.0369 19.5563 25.286C19.8005 25.5351 20.1317 25.675 20.477 25.675ZM21.7789 17.7055C21.7789 18.0578 21.6417 18.3956 21.3976 18.6447C21.1534 18.8938 20.8223 19.0338 20.477 19.0338C20.1317 19.0338 19.8005 18.8938 19.5563 18.6447C19.3122 18.3956 19.175 18.0578 19.175 17.7055C19.175 17.3532 19.3122 17.0154 19.5563 16.7663C19.8005 16.5172 20.1317 16.3772 20.477 16.3772C20.8223 16.3772 21.1534 16.5172 21.3976 16.7663C21.6417 17.0154 21.7789 17.3532 21.7789 17.7055ZM12.6652 25.675C13.0105 25.675 13.3417 25.5351 13.5859 25.286C13.83 25.0369 13.9672 24.6991 13.9672 24.3468C13.9672 23.9945 13.83 23.6567 13.5859 23.4076C13.3417 23.1585 13.0105 23.0185 12.6652 23.0185C12.3199 23.0185 11.9888 23.1585 11.7446 23.4076C11.5005 23.6567 11.3633 23.9945 11.3633 24.3468C11.3633 24.6991 11.5005 25.0369 11.7446 25.286C11.9888 25.5351 12.3199 25.675 12.6652 25.675ZM12.6652 19.0338C13.0105 19.0338 13.3417 18.8938 13.5859 18.6447C13.83 18.3956 13.9672 18.0578 13.9672 17.7055C13.9672 17.3532 13.83 17.0154 13.5859 16.7663C13.3417 16.5172 13.0105 16.3772 12.6652 16.3772C12.3199 16.3772 11.9888 16.5172 11.7446 16.7663C11.5005 17.0154 11.3633 17.3532 11.3633 17.7055C11.3633 18.0578 11.5005 18.3956 11.7446 18.6447C11.9888 18.8938 12.3199 19.0338 12.6652 19.0338ZM21.7789 11.0642C21.7789 11.4165 21.6417 11.7543 21.3976 12.0034C21.1534 12.2525 20.8223 12.3925 20.477 12.3925C20.1317 12.3925 19.8005 12.2525 19.5563 12.0034C19.3122 11.7543 19.175 11.4165 19.175 11.0642C19.175 10.7119 19.3122 10.3741 19.5563 10.125C19.8005 9.8759 20.1317 9.73596 20.477 9.73596C20.8223 9.73596 21.1534 9.8759 21.3976 10.125C21.6417 10.3741 21.7789 10.7119 21.7789 11.0642ZM12.6652 12.3925C13.0105 12.3925 13.3417 12.2525 13.5859 12.0034C13.83 11.7543 13.9672 11.4165 13.9672 11.0642C13.9672 10.7119 13.83 10.3741 13.5859 10.125C13.3417 9.8759 13.0105 9.73596 12.6652 9.73596C12.3199 9.73596 11.9888 9.8759 11.7446 10.125C11.5005 10.3741 11.3633 10.7119 11.3633 11.0642C11.3633 11.4165 11.5005 11.7543 11.7446 12.0034C11.9888 12.2525 12.3199 12.3925 12.6652 12.3925Z" fill="#8A8A8A"/>
</svg>
