<svg width="161" height="160" viewBox="0 0 161 160" fill="none" xmlns="http://www.w3.org/2000/svg">
<rect width="160" height="160" transform="translate(0.636719)" fill="white"/>
<rect x="30.832" y="29.9268" width="99.6917" height="99.6917" rx="13" stroke="#252525" stroke-width="6"/>
<rect x="50.5625" y="49.6558" width="60.2335" height="60.2335" rx="7" stroke="#2E52F5" stroke-width="6"/>
<path d="M132.364 43.8206L143.137 43.8206" stroke="#252525" stroke-width="6" stroke-linecap="round" stroke-linejoin="round"/>
<path d="M132.364 116.722L143.137 116.722" stroke="#252525" stroke-width="6" stroke-linecap="round" stroke-linejoin="round"/>
<path d="M132.364 92.0872L143.137 92.0872" stroke="#252525" stroke-width="6" stroke-linecap="round" stroke-linejoin="round"/>
<path d="M132.364 66.9495L143.137 66.9495" stroke="#252525" stroke-width="6" stroke-linecap="round" stroke-linejoin="round"/>
<path d="M19.1378 43.8206L29.9102 43.8206" stroke="#252525" stroke-width="6" stroke-linecap="round" stroke-linejoin="round"/>
<path d="M19.1378 116.22L29.9102 116.22" stroke="#252525" stroke-width="6" stroke-linecap="round" stroke-linejoin="round"/>
<path d="M19.1378 92.0872L29.9102 92.0872" stroke="#252525" stroke-width="6" stroke-linecap="round" stroke-linejoin="round"/>
<path d="M19.1378 67.9525L29.9102 67.9525" stroke="#252525" stroke-width="6" stroke-linecap="round" stroke-linejoin="round"/>
<path d="M117.333 131.228L117.333 142" stroke="#252525" stroke-width="6" stroke-linecap="round" stroke-linejoin="round"/>
<path d="M44.4336 131.228L44.4336 142" stroke="#252525" stroke-width="6" stroke-linecap="round" stroke-linejoin="round"/>
<path d="M69.0675 131.228L69.0675 142" stroke="#252525" stroke-width="6" stroke-linecap="round" stroke-linejoin="round"/>
<path d="M94.2043 131.228L94.2043 142" stroke="#252525" stroke-width="6" stroke-linecap="round" stroke-linejoin="round"/>
<path d="M117.333 18.0001L117.333 28.7725" stroke="#252525" stroke-width="6" stroke-linecap="round" stroke-linejoin="round"/>
<path d="M44.9347 18.0001L44.9347 28.7725" stroke="#252525" stroke-width="6" stroke-linecap="round" stroke-linejoin="round"/>
<path d="M69.0675 18.0001L69.0675 28.7725" stroke="#252525" stroke-width="6" stroke-linecap="round" stroke-linejoin="round"/>
<path d="M93.2004 18.0001L93.2004 28.7725" stroke="#252525" stroke-width="6" stroke-linecap="round" stroke-linejoin="round"/>
</svg>
