<svg width="161" height="160" viewBox="0 0 161 160" fill="none" xmlns="http://www.w3.org/2000/svg">
<rect width="160" height="160" transform="translate(0.636719)" fill="white"/>
<rect x="35.7398" y="12.689" width="91.1737" height="134.622" rx="13.311" stroke="#252525" stroke-width="5.37805"/>
<path d="M48.8657 132.886C48.8657 134.371 50.0696 135.575 51.5547 135.575L75.7559 135.575C77.241 135.575 78.4449 134.371 78.4449 132.886C78.4449 131.401 77.241 130.197 75.7559 130.197L54.2437 130.197L54.2437 108.685C54.2437 107.199 53.0398 105.995 51.5547 105.995C50.0696 105.995 48.8657 107.199 48.8657 108.685L48.8657 132.886ZM80.7651 107.478C81.8152 106.428 81.8152 104.725 80.7651 103.675C79.7149 102.625 78.0123 102.625 76.9622 103.675L80.7651 107.478ZM53.4561 134.787L80.7651 107.478L76.9622 103.675L49.6533 130.984L53.4561 134.787Z" fill="#7882FE"/>
<path d="M113.568 30.1147C113.568 28.6296 112.364 27.4257 110.879 27.4257L86.6777 27.4257C85.1926 27.4257 83.9887 28.6296 83.9887 30.1147C83.9887 31.5999 85.1926 32.8038 86.6777 32.8038L108.19 32.8038L108.19 54.316C108.19 55.8011 109.394 57.005 110.879 57.005C112.364 57.005 113.568 55.8011 113.568 54.316L113.568 30.1147ZM81.6685 55.5223C80.6184 56.5724 80.6184 58.275 81.6685 59.3251C82.7187 60.3753 84.4213 60.3753 85.4714 59.3251L81.6685 55.5223ZM108.977 28.2133L81.6685 55.5223L85.4714 59.3251L112.78 32.0162L108.977 28.2133Z" fill="#7882FE"/>
</svg>
