<svg width="16" height="16" viewBox="0 0 16 16" fill="none" xmlns="http://www.w3.org/2000/svg">
<path fill-rule="evenodd" clip-rule="evenodd" d="M3.5 8.00004C3.49965 9.03096 3.85328 10.0307 4.50175 10.8322C5.15021 11.6336 6.0542 12.1881 7.0625 12.4028C8.07079 12.6176 9.12227 12.4797 10.041 12.0121C10.9598 11.5445 11.6902 10.7756 12.11 9.83404L13.501 10.399C12.9496 11.6625 11.98 12.6976 10.7552 13.3303C9.5304 13.963 8.12512 14.1547 6.77562 13.8732C5.42612 13.5917 4.21468 12.8542 3.34497 11.7846C2.47527 10.715 2.00033 9.37858 2 8.00004C1.99994 6.74777 2.3917 5.52687 3.12038 4.50843C3.84906 3.49 4.87813 2.72509 6.06338 2.32089C7.24862 1.9167 8.53063 1.89348 9.72973 2.25449C10.9288 2.61551 11.9849 3.34266 12.75 4.33404V2.50004H14.25V6.50004L13.5 7.25004H10V5.75004H11.898C11.4029 4.89171 10.6383 4.22079 9.72295 3.84141C8.80757 3.46202 7.79256 3.39537 6.83543 3.6518C5.8783 3.90824 5.03257 4.47342 4.42948 5.25964C3.82639 6.04585 3.49966 7.00915 3.5 8.00004V8.00004Z" fill="white"/>
</svg>
