<svg width="143" height="24" viewBox="0 0 143 24" fill="none" xmlns="http://www.w3.org/2000/svg">
<path d="M9.48165 17.9783C14.5186 17.9783 17.6926 14.0913 17.6926 9.56027V8.31827H8.97565V11.3083H14.3347C13.7136 13.5163 12.0346 14.9423 9.48165 14.9423C6.21565 14.9423 3.86965 12.4583 3.86965 9.35327C3.86965 6.31727 6.23865 3.76427 9.36665 3.76427C11.5516 3.76427 13.1617 4.73027 14.2197 6.68527L16.9796 5.02927C15.5536 2.49927 12.8166 0.728271 9.34365 0.728271C4.37565 0.728271 0.764648 4.56927 0.764648 9.35327C0.764648 14.0223 4.23765 17.9783 9.48165 17.9783Z" fill="black"/>
<path d="M25.5135 18.0243C27.2845 18.0243 28.8945 17.2653 29.8835 16.0003V17.7483H32.9885V4.29327H29.8835V5.90327C28.8945 4.73027 27.3305 4.01727 25.5595 4.01727C22.1555 4.01727 18.8895 6.57027 18.8895 11.0323C18.8895 15.4483 22.2705 18.0243 25.5135 18.0243ZM26.0195 15.1723C23.7195 15.1723 21.9485 13.3323 21.9485 10.9863C21.9485 8.66327 23.7195 6.84627 26.0195 6.84627C28.3425 6.84627 30.0445 8.68627 30.0445 10.9863C30.0445 13.3093 28.3425 15.1723 26.0195 15.1723Z" fill="black"/>
<path d="M34.7572 17.7483H37.8852V0.728271H34.7572V17.7483Z" fill="black"/>
<path d="M45.8632 18.0243C47.6342 18.0243 49.2442 17.2653 50.2332 16.0003V17.7483H53.3382V4.29327H50.2332V5.90327C49.2442 4.73027 47.6802 4.01727 45.9092 4.01727C42.5052 4.01727 39.2392 6.57027 39.2392 11.0323C39.2392 15.4483 42.6202 18.0243 45.8632 18.0243ZM46.3692 15.1723C44.0692 15.1723 42.2982 13.3323 42.2982 10.9863C42.2982 8.66327 44.0692 6.84627 46.3692 6.84627C48.6922 6.84627 50.3942 8.68627 50.3942 10.9863C50.3942 13.3093 48.6922 15.1723 46.3692 15.1723Z" fill="black"/>
<path d="M54.1002 17.7483H57.8952L61.0922 13.2633L64.3812 17.7483H68.1762L63.0242 10.9403L67.8542 4.29327H64.1742L61.1382 8.57127L58.0792 4.29327H54.2842L59.1602 10.8943L54.1002 17.7483Z" fill="black"/>
<path d="M70.9421 23.9583H74.0931L82.1201 4.29327H78.8541L75.3121 13.3553L71.5631 4.29327H68.2511L73.7711 17.0813L70.9421 23.9583Z" fill="black"/>
<path d="M94.5926 17.9783C98.2726 17.9783 100.389 15.4023 100.389 12.7573C100.389 9.53727 97.8126 8.52527 95.5356 7.78927C93.6956 7.16827 92.1086 6.77727 92.1086 5.42027C92.1086 4.33927 92.9136 3.51127 94.4546 3.51127C95.7656 3.51127 96.7776 4.04027 97.4906 5.12127L100.067 3.16627C98.7096 1.76327 97.1226 0.728271 94.4316 0.728271C91.2116 0.728271 88.8656 2.84427 88.8656 5.53527C88.8656 8.73227 91.3496 9.58327 93.6266 10.3193C95.3976 10.8713 97.1226 11.3313 97.1226 12.7343C97.1226 13.9073 96.2256 14.9883 94.5696 14.9883C93.0286 14.9883 91.7406 14.1833 90.8896 12.7113L88.0376 14.9653C89.5786 16.6903 91.5796 17.9783 94.5926 17.9783Z" fill="black"/>
<path d="M101.895 17.7483H105.023V12.9413H107.622C111.118 12.9413 113.694 10.2733 113.694 6.93827C113.694 3.62627 111.118 0.958272 107.645 0.958272H101.895V17.7483ZM107.415 3.85627C109.255 3.85627 110.543 5.21327 110.543 6.93827C110.543 8.66327 109.255 10.0433 107.415 10.0433H105.023V3.85627H107.415Z" fill="black"/>
<path d="M115.259 17.7483H125.218V14.7583H118.387V10.8023H125.218V7.81227H118.387V3.94827H125.218V0.958272H115.259V17.7483Z" fill="black"/>
<path d="M135.126 17.9783C138.438 17.9783 141.267 16.0463 142.739 13.1943L139.887 11.6993C138.99 13.5393 137.38 14.8503 135.057 14.8503C131.929 14.8503 129.606 12.4123 129.606 9.35327C129.606 6.22527 131.929 3.81027 135.126 3.81027C137.311 3.81027 138.76 4.89127 139.749 6.63927L142.486 4.89127C141.014 2.38427 138.277 0.728271 135.126 0.728271C130.273 0.728271 126.501 4.33927 126.501 9.35327C126.501 14.1373 129.951 17.9783 135.126 17.9783Z" fill="black"/>
</svg>
